# xmcd
#
# Track frame offsets:
#	150
#	26610
#	41885
#	67498
#	95336
#	123985
#	145265
#	168547
#	194337
#	224155
#	249938
#	279105
# Disc length: 3949 seconds
# Revision: 1
# Processed by: cddbd v1.5.2PL0 Copyright (c) Steve Scherf et al.
#
# Submitted via: libkcddb 0.31
#
DISCID=ba0f6b0c
DTITLE=Trio Carapia - Levante
DYEAR=2007
DGENRE=Instrumental
TTITLE0=Suite Carapiana
TTITLE1=De Papo Pro A
TTITLE2=Valsa Para Diogo
TTITLE3=Vaca Estrela e Boi Fuba
TTITLE4=O Choro e a Catira
TTITLE5=Rubros
TTITLE6=Malandrinho
TTITLE7=Mulher Rendeira
TTITLE8=Virado a Paulista
TTITLE9=Faca de Ponta
TTITLE10=Embalada nos Sonhos
TTITLE11=Pagode do Veio
EXTD=
EXTT0=
EXTT1=
EXTT2=
EXTT3=
EXTT4=
EXTT5=
EXTT6=
EXTT7=
EXTT8=
EXTT9=
EXTT10=
EXTT11=
PLAYORDER=
